<svg xmlns="http://www.w3.org/2000/svg" fill="none" viewBox="0 0 70 70"><path fill="#95E1D3" d="M35 62.708A27.708 27.708 0 1 1 62.708 35 27.738 27.738 0 0 1 35 62.708zm0-52.5A24.79 24.79 0 1 0 59.792 35 24.82 24.82 0 0 0 35 10.208z"/><path fill="#95E1D3" d="M35 50.196A15.196 15.196 0 1 1 50.196 35 15.225 15.225 0 0 1 35 50.196zm0-27.475A12.28 12.28 0 1 0 47.28 35 12.308 12.308 0 0 0 35 22.72z"/><path fill="#95E1D3" d="M61.25 36.458H8.75a1.458 1.458 0 1 1 0-2.916h52.5a1.458 1.458 0 1 1 0 2.916z"/><path fill="#95E1D3" d="M35 62.708a1.458 1.458 0 0 1-1.458-1.458V8.75a1.458 1.458 0 0 1 2.916 0v52.5A1.459 1.459 0 0 1 35 62.708z"/></svg>