<svg width="70" height="70" viewBox="0 0 70 70" fill="none" xmlns="http://www.w3.org/2000/svg">
<path d="M35 62.7083C29.5198 62.7083 24.1627 61.0833 19.606 58.0386C15.0494 54.994 11.498 50.6666 9.40081 45.6035C7.30363 40.5405 6.75491 34.9693 7.82405 29.5944C8.89318 24.2195 11.5321 19.2823 15.4072 15.4073C19.2823 11.5322 24.2195 8.89321 29.5943 7.82408C34.9692 6.75494 40.5405 7.30366 45.6035 9.40084C50.6665 11.498 54.994 15.0495 58.0386 19.6061C61.0832 24.1627 62.7083 29.5198 62.7083 35C62.7006 42.3463 59.7788 49.3896 54.5842 54.5842C49.3895 59.7789 42.3463 62.7006 35 62.7083ZM35 10.2083C30.0966 10.2083 25.3034 11.6623 21.2265 14.3865C17.1495 17.1106 13.9719 20.9826 12.0955 25.5126C10.219 30.0427 9.72808 35.0275 10.6847 39.8366C11.6413 44.6457 14.0024 49.0632 17.4696 52.5304C20.9368 55.9975 25.3542 58.3587 30.1634 59.3153C34.9725 60.2719 39.9572 59.7809 44.4873 57.9045C49.0174 56.0281 52.8893 52.8505 55.6135 48.7735C58.3376 44.6965 59.7916 39.9033 59.7916 35C59.7839 28.4272 57.1695 22.1258 52.5218 17.4782C47.8741 12.8305 41.5728 10.2161 35 10.2083V10.2083Z" fill="#95E1D3"/>
<path d="M35 50.1958C31.9945 50.1958 29.0566 49.3046 26.5576 47.6349C24.0587 45.9651 22.111 43.5919 20.9609 40.8152C19.8107 38.0385 19.5098 34.9831 20.0961 32.0354C20.6825 29.0877 22.1297 26.3801 24.2549 24.2549C26.3801 22.1297 29.0877 20.6825 32.0354 20.0962C34.9831 19.5098 38.0385 19.8107 40.8152 20.9609C43.5918 22.111 45.9651 24.0587 47.6348 26.5576C49.3046 29.0566 50.1958 31.9945 50.1958 35C50.1881 39.0278 48.5846 42.8885 45.7365 45.7366C42.8884 48.5847 39.0278 50.1881 35 50.1958V50.1958ZM35 22.7208C32.5714 22.7208 30.1973 23.441 28.178 24.7902C26.1587 26.1395 24.5849 28.0572 23.6555 30.301C22.7261 32.5447 22.483 35.0136 22.9568 37.3955C23.4305 39.7775 24.6 41.9654 26.3173 43.6827C28.0346 45.3999 30.2225 46.5694 32.6044 47.0432C34.9864 47.517 37.4553 47.2738 39.699 46.3445C41.9427 45.4151 43.8605 43.8412 45.2097 41.8219C46.559 39.8026 47.2791 37.4286 47.2791 35C47.2714 31.7457 45.9753 28.6269 43.6741 26.3258C41.373 24.0247 38.2542 22.7285 35 22.7208V22.7208Z" fill="#95E1D3"/>
<path d="M61.25 36.4583H8.74996C8.36319 36.4583 7.99225 36.3047 7.71876 36.0312C7.44527 35.7577 7.29163 35.3868 7.29163 35C7.29163 34.6132 7.44527 34.2423 7.71876 33.9688C7.99225 33.6953 8.36319 33.5417 8.74996 33.5417H61.25C61.6367 33.5417 62.0077 33.6953 62.2812 33.9688C62.5546 34.2423 62.7083 34.6132 62.7083 35C62.7083 35.3868 62.5546 35.7577 62.2812 36.0312C62.0077 36.3047 61.6367 36.4583 61.25 36.4583Z" fill="#95E1D3"/>
<path d="M35 62.7083C34.6132 62.7083 34.2423 62.5547 33.9688 62.2812C33.6953 62.0077 33.5416 61.6368 33.5416 61.25V8.75001C33.5416 8.36323 33.6953 7.9923 33.9688 7.71881C34.2423 7.44532 34.6132 7.29167 35 7.29167C35.3867 7.29167 35.7577 7.44532 36.0312 7.71881C36.3046 7.9923 36.4583 8.36323 36.4583 8.75001V61.25C36.4583 61.6368 36.3046 62.0077 36.0312 62.2812C35.7577 62.5547 35.3867 62.7083 35 62.7083Z" fill="#95E1D3"/>
</svg>
