<svg xmlns="http://www.w3.org/2000/svg" fill="none" viewBox="0 0 170 170"><path stroke="#95E1D3" stroke-width="2" d="M1 1h168v168H1z"/><path fill="#95E1D3" d="M89.5 119.333a35.374 35.374 0 0 1-16.292-3.958 2.082 2.082 0 0 1-1.03-1.221 2.087 2.087 0 0 1 2.947-2.487 31.332 31.332 0 0 0 45.356-31.323A31.328 31.328 0 0 0 90.238 52.42a31.333 31.333 0 0 0-27.613 47.706 2.124 2.124 0 0 1-.708 2.875 2.083 2.083 0 0 1-2.875-.708 35.418 35.418 0 0 1 54.541-44.334 35.414 35.414 0 0 1-.278 52.206A35.414 35.414 0 0 1 96 118.75c-2.143.399-4.32.594-6.5.583z"/><path fill="#95E1D3" d="M57.167 121.5a4.912 4.912 0 0 1-4.044-2.258 4.921 4.921 0 0 1-.373-4.617l6.333-14.25a2.126 2.126 0 0 1 2.792-1.042 2.084 2.084 0 0 1 1.042 2.75l-6.375 14.25a.627.627 0 0 0 0 .75.703.703 0 0 0 .75.209l16.041-5.709a2.05 2.05 0 0 1 2.255.545c.184.205.324.445.412.705a2.086 2.086 0 0 1-1.25 2.667l-15.917 5.708a4.67 4.67 0 0 1-1.666.292z"/></svg>