<svg xmlns="http://www.w3.org/2000/svg" fill="none" viewBox="0 0 40 40"><path fill="#fff" d="M20.417 20a9.167 9.167 0 1 1 9.166-9.167A9.183 9.183 0 0 1 20.417 20zm0-16.667a7.5 7.5 0 1 0 7.5 7.5 7.517 7.517 0 0 0-7.5-7.5z"/><path fill="#fff" d="M5.417 33.333a.833.833 0 0 1-.834-.833A14.184 14.184 0 0 1 18.75 18.333h3.333a.833.833 0 1 1 0 1.667H18.75a12.5 12.5 0 0 0-12.5 12.5.833.833 0 0 1-.833.833zM27.917 38.333a.833.833 0 0 1-.834-.833V24.167a.833.833 0 0 1 1.667 0V37.5a.834.834 0 0 1-.833.833z"/><path fill="#fff" d="M34.583 31.667H21.25a.833.833 0 0 1 0-1.667h13.333a.833.833 0 0 1 0 1.667z"/></svg>