<svg xmlns="http://www.w3.org/2000/svg" fill="none" viewBox="0 0 28 36"><path fill="#fff" d="M11.672 23.42c-.885 4.77-1.963 9.345-5.162 11.733-.985-7.21 1.45-12.626 2.581-18.374-1.928-3.343.233-10.072 4.3-8.415 5.005 2.041-4.335 12.429 1.935 13.727 6.547 1.355 9.221-11.695 5.161-15.94C14.621.024 3.413 6.012 4.792 14.785c.336 2.146 2.486 2.797.859 5.758-3.754-.86-4.874-3.908-4.729-7.973C1.153 5.92 6.727 1.26 12.316.617c7.07-.815 13.705 2.672 14.62 9.52 1.032 7.728-3.19 16.1-10.748 15.497-2.05-.163-2.91-1.208-4.515-2.214z"/></svg>