<svg xmlns="http://www.w3.org/2000/svg" fill="none" viewBox="0 0 38 30"><path fill="#fff" d="M32.991 4.704A7.525 7.525 0 0 0 36.294.549a15.032 15.032 0 0 1-4.77 1.822 7.525 7.525 0 0 0-12.802 6.851A21.322 21.322 0 0 1 3.245 1.375a7.525 7.525 0 0 0 2.324 10.028 7.483 7.483 0 0 1-3.4-.942v.095a7.515 7.515 0 0 0 6.025 7.364 7.524 7.524 0 0 1-3.392.13 7.525 7.525 0 0 0 7.016 5.215 15.067 15.067 0 0 1-9.327 3.214c-.6 0-1.2-.035-1.794-.103A21.26 21.26 0 0 0 12.21 29.75 21.222 21.222 0 0 0 33.577 8.38c0-.325-.006-.649-.022-.97a15.257 15.257 0 0 0 3.748-3.889 15.016 15.016 0 0 1-4.312 1.183z"/></svg>