<svg xmlns="http://www.w3.org/2000/svg" fill="none" viewBox="0 0 129 129"><g stroke="#20263C" stroke-miterlimit="10" opacity=".1"><path d="M128.12 125.13v3h-3" opacity=".1"/><path stroke-dasharray="5.77 5.77" d="M119.35 128.13H6.88" opacity=".1"/><path d="M4 128.13H1v-3" opacity=".1"/><path stroke-dasharray="5.77 5.77" d="M1 119.36V6.89" opacity=".1"/><path d="M1 4V1h3" opacity=".1"/><path stroke-dasharray="5.77 5.77" d="M9.76 1h112.48" opacity=".1"/><path d="M125.12 1h3v3" opacity=".1"/><path stroke-dasharray="5.77 5.77" d="M128.12 9.77v112.47" opacity=".1"/></g><path fill="#A7A9AC" d="M64.13 23L29.999 45.62v.042L56.39 63.143l7.739-5.138V23zM29.998 80.688l34.132 22.598V68.281l-7.739-5.138L30 80.624v.064zM101.608 46.174l-34.13-22.62V58.56l7.76 5.138 26.37-17.481v-.043z" opacity=".8"/><path fill="#A7A9AC" d="M67.477 103.841l34.131-22.62v-.042l-26.37-17.482-7.76 5.138v35.006z" opacity=".8"/><path fill="#414042" d="M29.998 45.662v34.963l26.393-17.482L30 45.662zM101.609 81.179V46.216L75.237 63.698l26.372 17.481z" opacity=".8"/></svg>