<svg xmlns="http://www.w3.org/2000/svg" fill="none" viewBox="0 0 69 67"><path fill="#414042" d="M11.7 55.11v11.65l10.08-5.83V49.29L11.7 55.11z" opacity=".95"/><path fill="#414042" d="M10.08 55.11v11.65L0 60.93V49.29l10.08 5.82z" opacity=".5"/><path fill="#414042" d="M11.7 42.53v10.71l9.28-5.36-9.28-5.35z" opacity=".3"/><path fill="#414042" d="M10.08 42.53L.8 47.88l9.28 5.36V42.53z" opacity=".75"/><path fill="#414042" d="M10.08 39.67V28.02L0 33.85v11.64l10.08-5.82zM11.7 12.58v11.65l10.08-5.83V6.76L11.7 12.58z" opacity=".95"/><path fill="#414042" d="M10.08 12.58v11.65L0 18.4V6.76l10.08 5.82z" opacity=".5"/><path fill="#414042" d="M11.7 0v10.71l9.28-5.36L11.7 0z" opacity=".3"/><path fill="#414042" d="M10.08 0L.8 5.35l9.28 5.36V0zM.8 20.72v10.72l9.28-5.36L.8 20.72z" opacity=".75"/><path fill="#414042" d="M20.98 20.72l-9.28 5.36 9.28 5.36V20.72z" opacity=".15"/><path fill="#414042" d="M11.7 39.67V28.02l10.08 5.83v11.64L11.7 39.67z" opacity=".5"/><path fill="#414042" d="M35.2 55.11v11.65l10.08-5.83V49.29L35.2 55.11z" opacity=".95"/><path fill="#414042" d="M33.58 55.11v11.65L23.5 60.93V49.29l10.08 5.82z" opacity=".5"/><path fill="#414042" d="M35.2 42.53v10.71l9.28-5.36-9.28-5.35z" opacity=".3"/><path fill="#414042" d="M33.58 42.53l-9.28 5.35 9.28 5.36V42.53z" opacity=".75"/><path fill="#414042" d="M33.58 39.67V28.02L23.5 33.85v11.64l10.08-5.82zM35.2 12.58v11.65l10.08-5.83V6.76L35.2 12.58z" opacity=".95"/><path fill="#414042" d="M33.58 12.58v11.65L23.5 18.4V6.76l10.08 5.82z" opacity=".5"/><path fill="#414042" d="M35.2 0v10.71l9.28-5.36L35.2 0z" opacity=".3"/><path fill="#414042" d="M33.58 0L24.3 5.35l9.28 5.36V0zM24.3 20.72v10.72l9.28-5.36-9.28-5.36z" opacity=".75"/><path fill="#414042" d="M44.48 20.72l-9.28 5.36 9.28 5.36V20.72z" opacity=".15"/><path fill="#414042" d="M35.2 39.67V28.02l10.08 5.83v11.64L35.2 39.67z" opacity=".5"/><path fill="#414042" d="M58.36 55.11v11.65l10.09-5.83V49.29l-10.09 5.82z" opacity=".95"/><path fill="#414042" d="M56.75 55.11v11.65l-10.09-5.83V49.29l10.09 5.82z" opacity=".5"/><path fill="#414042" d="M58.36 42.53v10.71l9.28-5.36-9.28-5.35z" opacity=".3"/><path fill="#414042" d="M56.75 42.53l-9.28 5.35 9.28 5.36V42.53z" opacity=".75"/><path fill="#414042" d="M56.75 39.67V28.02l-10.09 5.83v11.64l10.09-5.82zM58.36 12.58v11.65l10.09-5.83V6.76l-10.09 5.82z" opacity=".95"/><path fill="#414042" d="M56.75 12.58v11.65L46.66 18.4V6.76l10.09 5.82z" opacity=".5"/><path fill="#414042" d="M58.36 0v10.71l9.28-5.36L58.36 0z" opacity=".3"/><path fill="#414042" d="M56.75 0l-9.28 5.35 9.28 5.36V0zM47.47 20.72v10.72l9.28-5.36-9.28-5.36z" opacity=".75"/><path fill="#414042" d="M67.64 20.72l-9.28 5.36 9.28 5.36V20.72z" opacity=".15"/><path fill="#414042" d="M58.36 39.67V28.02l10.09 5.83v11.64l-10.09-5.82z" opacity=".5"/></svg>